<svg width="13" height="13" viewBox="0 0 13 13" fill="none" xmlns="http://www.w3.org/2000/svg">
<path d="M5.74167 8.775L9.56042 4.95625L8.80208 4.19792L5.74167 7.25833L4.19792 5.71458L3.43958 6.47292L5.74167 8.775ZM2.70833 11.375C2.41042 11.375 2.15538 11.2689 1.94323 11.0568C1.73108 10.8446 1.625 10.5896 1.625 10.2917V2.70833C1.625 2.41042 1.73108 2.15538 1.94323 1.94323C2.15538 1.73108 2.41042 1.625 2.70833 1.625H10.2917C10.5896 1.625 10.8446 1.73108 11.0568 1.94323C11.2689 2.15538 11.375 2.41042 11.375 2.70833V10.2917C11.375 10.5896 11.2689 10.8446 11.0568 11.0568C10.8446 11.2689 10.5896 11.375 10.2917 11.375H2.70833ZM2.70833 10.2917H10.2917V2.70833H2.70833V10.2917Z" fill="white"/>
</svg>
