<svg width="10" height="11" viewBox="0 0 10 11" fill="none" xmlns="http://www.w3.org/2000/svg">
<path d="M5.73477 5.00205L9.87977 0.857046C9.96169 0.761395 10.0045 0.638357 9.99963 0.512519C9.99477 0.386681 9.9426 0.267312 9.85355 0.178264C9.76451 0.0892171 9.64514 0.0370507 9.5193 0.0321901C9.39346 0.0273295 9.27042 0.0701328 9.17477 0.152046L5.02977 4.29705L0.884772 0.147046C0.79062 0.052894 0.662923 0 0.529772 0C0.396621 0 0.268924 0.052894 0.174772 0.147046C0.0806199 0.241198 0.0277259 0.368895 0.0277259 0.502046C0.0277259 0.635197 0.0806199 0.762894 0.174772 0.857046L4.32477 5.00205L0.174772 9.14705C0.122431 9.19187 0.0799207 9.24703 0.0499091 9.30906C0.0198974 9.37109 0.00303234 9.43866 0.000372596 9.50752C-0.00228715 9.57638 0.00931558 9.64505 0.0344529 9.70921C0.0595901 9.77337 0.0977193 9.83164 0.146447 9.88037C0.195174 9.9291 0.253448 9.96723 0.31761 9.99236C0.381773 10.0175 0.450439 10.0291 0.519298 10.0264C0.588158 10.0238 0.655724 10.0069 0.717757 9.97691C0.779789 9.9469 0.834948 9.90439 0.879772 9.85205L5.02977 5.70705L9.17477 9.85205C9.27042 9.93396 9.39346 9.97676 9.5193 9.9719C9.64514 9.96704 9.76451 9.91488 9.85355 9.82583C9.9426 9.73678 9.99477 9.61741 9.99963 9.49157C10.0045 9.36573 9.96169 9.2427 9.87977 9.14705L5.73477 5.00205Z" fill="white"/>
</svg>
