<svg width="18" height="18" viewBox="0 0 18 18" fill="none" xmlns="http://www.w3.org/2000/svg">
<path fill-rule="evenodd" clip-rule="evenodd" d="M11.5116 6.33943e-08H8.11586C6.57706 6.33943e-08 5.35809 5.96046e-08 4.40451 0.128093C3.4233 0.260372 2.62879 0.538326 2.00172 1.16456C1.37548 1.79163 1.09753 2.58614 0.965251 3.56735C0.837158 4.52177 0.837158 5.73991 0.837158 7.2787V12.3488C0.837008 13.0969 1.10394 13.8204 1.58989 14.389C2.07584 14.9577 2.74886 15.3342 3.48776 15.4507C3.60246 16.0903 3.82432 16.6362 4.26804 17.0807C4.77204 17.5847 5.40665 17.8007 6.16013 17.9029C6.886 18 7.80944 18 8.9539 18H11.5576C12.7021 18 13.6255 18 14.3514 17.9029C15.1049 17.8007 15.7395 17.5847 16.2435 17.0807C16.7475 16.5767 16.9635 15.9421 17.0656 15.1887C17.1627 14.4628 17.1627 13.5393 17.1627 12.3949V8.11674C17.1627 6.97228 17.1627 6.04884 17.0656 5.32298C16.9635 4.56949 16.7475 3.93488 16.2435 3.43088C15.7989 2.98716 15.2531 2.7653 14.6134 2.6506C14.4969 1.91171 14.1205 1.23868 13.5518 0.752733C12.9831 0.266785 12.2596 -0.000150187 11.5116 6.33943e-08ZM13.2948 2.52921C13.1675 2.15749 12.9272 1.83488 12.6074 1.60654C12.2877 1.37821 11.9045 1.25557 11.5116 1.25581H8.16274C6.56618 1.25581 5.4326 1.25749 4.57111 1.37302C3.72972 1.48605 3.24414 1.6987 2.89 2.05284C2.53586 2.40698 2.3232 2.89256 2.21018 3.73395C2.09465 4.59544 2.09297 5.72902 2.09297 7.32558V12.3488C2.09273 12.7418 2.21536 13.1249 2.4437 13.4447C2.67204 13.7644 2.99465 14.0048 3.36637 14.1321C3.34879 13.6214 3.34879 13.0437 3.34879 12.3949V8.11674C3.34879 6.97228 3.34879 6.04884 3.44674 5.32298C3.5472 4.56949 3.76488 3.93488 4.26804 3.43088C4.77204 2.92688 5.40665 2.71088 6.16013 2.60958C6.886 2.51163 7.80944 2.51163 8.9539 2.51163H11.5576C12.2065 2.51163 12.7841 2.51163 13.2948 2.52921ZM5.15548 4.32C5.38739 4.08809 5.71223 3.9374 6.32758 3.85451C6.95883 3.76995 7.79772 3.76828 8.99911 3.76828H11.5107C12.7121 3.76828 13.5502 3.76995 14.1831 3.85451C14.7976 3.9374 15.1225 4.08893 15.3544 4.32C15.5863 4.55191 15.737 4.87674 15.8199 5.49209C15.9044 6.12335 15.9061 6.96223 15.9061 8.16363V12.3497C15.9061 13.5511 15.9044 14.3891 15.8199 15.022C15.737 15.6366 15.5854 15.9614 15.3544 16.1933C15.1225 16.4252 14.7976 16.5759 14.1823 16.6588C13.5502 16.7433 12.7121 16.745 11.5107 16.745H8.99911C7.79772 16.745 6.95883 16.7433 6.32674 16.6588C5.71223 16.5759 5.38739 16.4244 5.15548 16.1933C4.92358 15.9614 4.77288 15.6366 4.69 15.0212C4.60544 14.3891 4.60376 13.5511 4.60376 12.3497V8.16363C4.60376 6.96223 4.60544 6.12335 4.69 5.49126C4.77288 4.87674 4.92441 4.55191 5.15548 4.32Z" fill="white"/>
</svg>
