<svg width="18" height="18" viewBox="0 0 18 18" fill="none" xmlns="http://www.w3.org/2000/svg">
<path fill-rule="evenodd" clip-rule="evenodd" d="M2.17132 6.15063C2.06146 6.03764 2 5.88625 2 5.72866C2 5.57106 2.06146 5.41968 2.17132 5.30669C2.3958 5.07707 2.75822 5.07321 2.98742 5.29512L2.99856 5.30583L9.00896 11.4276L15.0014 5.31868C15.2263 5.08906 15.5883 5.08564 15.8179 5.30755L15.8286 5.31868C15.9366 5.42975 15.998 5.57802 15.9999 5.73295C16.0019 5.88788 15.9444 6.03768 15.8393 6.15149L15.8286 6.16263L9.42236 12.6935C9.36955 12.7478 9.30655 12.7912 9.23697 12.8212C9.16739 12.8511 9.09258 12.8671 9.01683 12.8681C8.94109 12.8691 8.86588 12.8552 8.7955 12.8272C8.72513 12.7992 8.66097 12.7575 8.60669 12.7047L8.59555 12.694L2.17132 6.15063Z" fill="white"/>
</svg>
