<svg width="18" height="18" viewBox="0 0 18 18" fill="none" xmlns="http://www.w3.org/2000/svg">
<path fill-rule="evenodd" clip-rule="evenodd" d="M16.7484 2.06982C17.438 2.06982 18 2.62605 18 3.30889V14.3308C18 15.0136 17.438 15.5698 16.7484 15.5698H1.25163C0.561977 15.5698 0 15.0136 0 14.3308V3.30889C0 2.62605 0.561977 2.06982 1.25163 2.06982H16.7484ZM1.07267 3.73273V14.3308C1.07267 14.427 1.1543 14.5081 1.25163 14.5081H16.7484C16.7955 14.5079 16.8406 14.4891 16.8741 14.456C16.9075 14.4228 16.9266 14.3779 16.9273 14.3308L16.9268 3.80389L9.29668 9.39122C9.11197 9.52674 8.86238 9.52936 8.67506 9.39959L8.65988 9.3886L1.07267 3.73273ZM16.0289 3.13151H2.0611L8.98325 8.29081L16.0289 3.13151Z" fill="white"/>
</svg>
